<?xml version="1.0" encoding="UTF-8"?>
<svg id="_レイヤー_1" data-name=" レイヤー 1" xmlns="http://www.w3.org/2000/svg" width="148.69mm" height="85.03mm" viewBox="0 0 421.49 241.04">
  <path d="m.5,31.43C15.43,21.85,53.47.29,106.35.5c52.02.2,89.42,21.33,104.39,30.93v208.69c-14.96-9.59-52.38-30.73-104.39-30.93-52.88-.2-90.92,21.37-105.85,30.93V31.43h0Zm210.25,208.69c14.93-9.58,52.97-31.14,105.85-30.93,52.02.2,89.42,21.33,104.39,30.93V31.43c-14.96-9.59-52.38-30.73-104.39-30.93-52.88-.2-90.92,21.36-105.85,30.93v208.69h0Z" fill="#fff" stroke="#231815" stroke-miterlimit="10"/>
  <path d="m7.15,37.45C21.61,28.23,58.45,7.48,109.66,7.67c50.37.19,86.6,20.53,101.09,29.78v200.86c-14.49-9.23-50.72-29.59-101.09-29.78-51.21-.19-88.04,20.56-102.51,29.78,0,0,0-200.86,0-200.86Zm203.61,200.86c14.46-9.22,51.3-29.97,102.51-29.78,50.37.19,86.6,20.53,101.09,29.78V37.45c-14.49-9.23-50.72-29.59-101.09-29.78-51.21-.19-88.04,20.56-102.51,29.78v200.86Z" fill="#fff" stroke="#231815" stroke-miterlimit="10"/>
  <path d="m12.63,37.45C26.7,28.23,62.55,7.48,112.38,7.67c49.03.19,84.27,20.53,98.38,29.78v200.86c-14.11-9.23-49.35-29.59-98.38-29.78-49.82-.19-85.67,20.56-99.75,29.78,0,0,0-200.86,0-200.86Zm198.13,200.86c14.08-9.22,49.93-29.97,99.75-29.78,49.03.19,84.27,20.53,98.38,29.78V37.45c-14.11-9.23-49.35-29.59-98.38-29.78-49.82-.19-85.67,20.56-99.75,29.78v200.86h0Z" fill="#fff" stroke="#231815" stroke-miterlimit="10"/>
</svg>